<svg width="414" height="80" viewBox="0 0 414 80" fill="none" xmlns="http://www.w3.org/2000/svg">
<path d="M111.899 9.12917H107.656V21.1322H104.626V9.12917H100.402V6.33974H111.899V9.12917ZM117.039 9.59408C118.618 9.59408 119.83 10.0167 120.676 10.862C121.522 11.6932 121.945 12.9541 121.945 14.6446V21.1322H119.18V19.7163C118.624 20.7729 117.589 21.3012 116.073 21.3012C115.29 21.3012 114.608 21.1533 114.027 20.8575C113.459 20.5616 113.024 20.153 112.721 19.6318C112.418 19.1106 112.266 18.5189 112.266 17.8567C112.266 16.8001 112.62 15.9689 113.327 15.3631C114.047 14.7574 115.151 14.4545 116.642 14.4545H118.99C118.99 13.736 118.794 13.1865 118.403 12.8062C118.011 12.4117 117.424 12.2145 116.642 12.2145C116.098 12.2145 115.562 12.3131 115.032 12.5103C114.514 12.6934 114.072 12.947 113.706 13.2711L112.645 10.9677C113.2 10.5309 113.863 10.1928 114.634 9.95332C115.417 9.71382 116.218 9.59408 117.039 9.59408ZM116.812 19.0824C117.317 19.0824 117.765 18.9556 118.157 18.702C118.548 18.4344 118.826 18.0469 118.99 17.5397V16.3775H116.964C115.751 16.3775 115.145 16.8212 115.145 17.7088C115.145 18.1314 115.29 18.4695 115.581 18.7231C115.884 18.9627 116.294 19.0824 116.812 19.0824ZM134.456 21.1322V14.3277L131.406 20.0333H130.156L127.183 14.3065V21.1322H124.512V9.76313H127.599L130.857 16.3352L134.323 9.76313H137.088L137.126 21.1322H134.456ZM145.847 10.545C146.82 10.545 147.672 10.7704 148.404 11.2212C149.137 11.658 149.699 12.2779 150.09 13.0809C150.494 13.8839 150.696 14.8137 150.696 15.8703C150.696 16.9551 150.457 17.9201 149.976 18.7654C149.509 19.5966 148.853 20.2446 148.006 20.7095C147.161 21.1604 146.202 21.3858 145.127 21.3858C143.347 21.3858 141.945 20.7518 140.922 19.4839C139.913 18.2019 139.407 16.3281 139.407 13.8628C139.407 11.5805 139.849 9.76313 140.733 8.41068C141.63 7.04414 143 6.14955 144.843 5.72691L149.692 4.64917L150.09 7.48087L145.809 8.43181C144.648 8.6854 143.782 9.10804 143.214 9.69974C142.66 10.2914 142.331 11.1297 142.229 12.2145C142.672 11.6791 143.202 11.2706 143.82 10.9888C144.44 10.6929 145.115 10.545 145.847 10.545ZM145.146 18.8288C145.904 18.8288 146.51 18.5541 146.965 18.0046C147.433 17.4552 147.665 16.7578 147.665 15.9126C147.665 15.0532 147.433 14.3699 146.965 13.8628C146.51 13.3556 145.904 13.102 145.146 13.102C144.376 13.102 143.758 13.3556 143.29 13.8628C142.823 14.3699 142.589 15.0532 142.589 15.9126C142.589 16.7719 142.83 17.4763 143.309 18.0258C143.789 18.5612 144.402 18.8288 145.146 18.8288ZM157.474 21.3012C156.401 21.3012 155.435 21.0548 154.576 20.5616C153.731 20.0545 153.068 19.3571 152.587 18.4695C152.108 17.582 151.868 16.5748 151.868 15.4477C151.868 14.3206 152.108 13.3133 152.587 12.4258C153.068 11.5382 153.731 10.8479 154.576 10.3548C155.435 9.84766 156.401 9.59408 157.474 9.59408C158.548 9.59408 159.508 9.84766 160.353 10.3548C161.2 10.8479 161.863 11.5382 162.342 12.4258C162.822 13.3133 163.062 14.3206 163.062 15.4477C163.062 16.5748 162.822 17.582 162.342 18.4695C161.863 19.3571 161.2 20.0545 160.353 20.5616C159.508 21.0548 158.548 21.3012 157.474 21.3012ZM157.474 18.5963C158.232 18.5963 158.852 18.3145 159.33 17.7511C159.823 17.1734 160.069 16.4057 160.069 15.4477C160.069 14.4897 159.823 13.7289 159.33 13.1654C158.852 12.5878 158.232 12.299 157.474 12.299C156.717 12.299 156.092 12.5878 155.599 13.1654C155.107 13.7289 154.86 14.4897 154.86 15.4477C154.86 16.4057 155.107 17.1734 155.599 17.7511C156.092 18.3145 156.717 18.5963 157.474 18.5963ZM172.88 15.1941C174.079 15.6449 174.68 16.5465 174.68 17.899C174.68 18.9274 174.332 19.7234 173.638 20.2869C172.942 20.8504 171.907 21.1322 170.531 21.1322H165.095V9.76313H170.304C171.579 9.76313 172.577 10.0238 173.297 10.545C174.017 11.0522 174.377 11.7707 174.377 12.7005C174.377 13.264 174.244 13.7641 173.979 14.2009C173.726 14.6235 173.359 14.9546 172.88 15.1941ZM167.804 14.4333H170.039C171.074 14.4333 171.592 14.0248 171.592 13.2077C171.592 12.4046 171.074 12.0031 170.039 12.0031H167.804V14.4333ZM170.285 18.8922C171.37 18.8922 171.914 18.4766 171.914 17.6454C171.914 17.2087 171.787 16.8917 171.535 16.6945C171.282 16.4831 170.885 16.3775 170.342 16.3775H167.804V18.8922H170.285ZM181.727 21.3012C180.641 21.3012 179.662 21.0548 178.791 20.5616C177.932 20.0545 177.257 19.3571 176.764 18.4695C176.284 17.582 176.045 16.5748 176.045 15.4477C176.045 14.3206 176.284 13.3133 176.764 12.4258C177.257 11.5382 177.932 10.8479 178.791 10.3548C179.662 9.84766 180.641 9.59408 181.727 9.59408C182.8 9.59408 183.735 9.84766 184.53 10.3548C185.338 10.8479 185.925 11.5594 186.292 12.4892L184 13.8628C183.47 12.8202 182.705 12.299 181.708 12.299C180.937 12.299 180.3 12.5807 179.795 13.1443C179.289 13.7078 179.037 14.4756 179.037 15.4477C179.037 16.4197 179.289 17.1876 179.795 17.7511C180.3 18.3145 180.937 18.5963 181.708 18.5963C182.717 18.5963 183.482 18.0751 184 17.0326L186.292 18.4273C185.925 19.3289 185.338 20.0333 184.53 20.5405C183.735 21.0477 182.8 21.3012 181.727 21.3012ZM192.576 16.8212H191.042V21.1322H188.087V9.76313H191.042V14.1797H192.633L195.399 9.76313H198.543L194.982 15.2152L198.789 21.1322H195.304L192.576 16.8212ZM200.239 9.76313H203.175V16.5254L208.138 9.76313H210.846V21.1322H207.911V14.3699L202.967 21.1322H200.239V9.76313ZM213.688 9.76313H216.623V16.5254L221.586 9.76313H224.295V21.1322H221.359V14.3699L216.415 21.1322H213.688V9.76313ZM218.802 8.53747C216.579 8.53747 215.461 7.44565 215.449 5.262H217.381C217.393 5.75509 217.514 6.1425 217.741 6.42426C217.98 6.69193 218.328 6.82577 218.783 6.82577C219.237 6.82577 219.584 6.69193 219.825 6.42426C220.076 6.1425 220.203 5.75509 220.203 5.262H222.173C222.16 7.44565 221.037 8.53747 218.802 8.53747ZM240.663 12.468H235.435V21.1322H232.499V9.76313H240.663V12.468ZM246.576 21.3012C245.502 21.3012 244.536 21.0548 243.678 20.5616C242.831 20.0545 242.168 19.3571 241.689 18.4695C241.209 17.582 240.97 16.5748 240.97 15.4477C240.97 14.3206 241.209 13.3133 241.689 12.4258C242.168 11.5382 242.831 10.8479 243.678 10.3548C244.536 9.84766 245.502 9.59408 246.576 9.59408C247.649 9.59408 248.608 9.84766 249.455 10.3548C250.301 10.8479 250.964 11.5382 251.444 12.4258C251.923 13.3133 252.164 14.3206 252.164 15.4477C252.164 16.5748 251.923 17.582 251.444 18.4695C250.964 19.3571 250.301 20.0545 249.455 20.5616C248.608 21.0548 247.649 21.3012 246.576 21.3012ZM246.576 18.5963C247.334 18.5963 247.952 18.3145 248.432 17.7511C248.925 17.1734 249.171 16.4057 249.171 15.4477C249.171 14.4897 248.925 13.7289 248.432 13.1654C247.952 12.5878 247.334 12.299 246.576 12.299C245.819 12.299 245.194 12.5878 244.701 13.1654C244.209 13.7289 243.962 14.4897 243.962 15.4477C243.962 16.4057 244.209 17.1734 244.701 17.7511C245.194 18.3145 245.819 18.5963 246.576 18.5963ZM259.045 21.3012C257.959 21.3012 256.98 21.0548 256.109 20.5616C255.25 20.0545 254.575 19.3571 254.082 18.4695C253.602 17.582 253.363 16.5748 253.363 15.4477C253.363 14.3206 253.602 13.3133 254.082 12.4258C254.575 11.5382 255.25 10.8479 256.109 10.3548C256.98 9.84766 257.959 9.59408 259.045 9.59408C260.118 9.59408 261.053 9.84766 261.848 10.3548C262.656 10.8479 263.243 11.5594 263.61 12.4892L261.318 13.8628C260.788 12.8202 260.023 12.299 259.026 12.299C258.256 12.299 257.618 12.5807 257.113 13.1443C256.608 13.7078 256.355 14.4756 256.355 15.4477C256.355 16.4197 256.608 17.1876 257.113 17.7511C257.618 18.3145 258.256 18.5963 259.026 18.5963C260.037 18.5963 260.8 18.0751 261.318 17.0326L263.61 18.4273C263.243 19.3289 262.656 20.0333 261.848 20.5405C261.053 21.0477 260.118 21.3012 259.045 21.3012ZM275.467 9.76313L270.864 21.8295C270.396 23.1397 269.816 24.0625 269.122 24.5978C268.44 25.1332 267.612 25.4009 266.64 25.4009C266.11 25.4009 265.585 25.3092 265.068 25.1262C264.55 24.9431 264.127 24.6895 263.799 24.3654L264.879 22.0197C265.106 22.2451 265.365 22.4212 265.655 22.548C265.958 22.6748 266.255 22.7382 266.546 22.7382C266.949 22.7382 267.278 22.6255 267.531 22.4001C267.782 22.1888 268.01 21.8295 268.212 21.3224L268.25 21.2167L263.837 9.76313H266.887L269.747 17.4763L272.626 9.76313H275.467ZM287.592 18.4273V23.5835H284.846V21.1322H277.686V23.5835H274.939V18.4273H275.356C275.988 18.4132 276.423 17.9975 276.663 17.1805C276.904 16.3634 277.055 15.2012 277.118 13.6937L277.25 9.76313H286.134V18.4273H287.592ZM279.788 13.9262C279.75 15.0814 279.669 16.0253 279.542 16.7578C279.428 17.4904 279.208 18.0469 278.879 18.4273H283.179V12.468H279.845L279.788 13.9262ZM293.411 9.59408C294.989 9.59408 296.201 10.0167 297.048 10.862C297.893 11.6932 298.317 12.9541 298.317 14.6446V21.1322H295.551V19.7163C294.995 20.7729 293.96 21.3012 292.445 21.3012C291.662 21.3012 290.98 21.1533 290.399 20.8575C289.831 20.5616 289.395 20.153 289.092 19.6318C288.789 19.1106 288.638 18.5189 288.638 17.8567C288.638 16.8001 288.991 15.9689 289.699 15.3631C290.418 14.7574 291.522 14.4545 293.013 14.4545H295.362C295.362 13.736 295.166 13.1865 294.775 12.8062C294.382 12.4117 293.795 12.2145 293.013 12.2145C292.469 12.2145 291.934 12.3131 291.403 12.5103C290.885 12.6934 290.443 12.947 290.077 13.2711L289.017 10.9677C289.571 10.5309 290.234 10.1928 291.005 9.95332C291.787 9.71382 292.59 9.59408 293.411 9.59408ZM293.184 19.0824C293.688 19.0824 294.136 18.9556 294.529 18.702C294.92 18.4344 295.197 18.0469 295.362 17.5397V16.3775H293.335C292.123 16.3775 291.517 16.8212 291.517 17.7088C291.517 18.1314 291.662 18.4695 291.953 18.7231C292.256 18.9627 292.666 19.0824 293.184 19.0824ZM306.888 9.59408C307.835 9.59408 308.692 9.84061 309.464 10.3337C310.246 10.8127 310.859 11.496 311.301 12.3835C311.742 13.257 311.964 14.2783 311.964 15.4477C311.964 16.617 311.742 17.6454 311.301 18.5329C310.859 19.4065 310.246 20.0896 309.464 20.5828C308.692 21.0617 307.835 21.3012 306.888 21.3012C305.586 21.3012 304.563 20.8434 303.819 19.9277V25.2318H300.864V9.76313H303.687V11.0733C304.419 10.0872 305.486 9.59408 306.888 9.59408ZM306.376 18.5963C307.134 18.5963 307.752 18.3145 308.232 17.7511C308.725 17.1734 308.971 16.4057 308.971 15.4477C308.971 14.4897 308.725 13.7289 308.232 13.1654C307.752 12.5878 307.134 12.299 306.376 12.299C305.619 12.299 304.994 12.5878 304.501 13.1654C304.021 13.7289 303.781 14.4897 303.781 15.4477C303.781 16.4057 304.021 17.1734 304.501 17.7511C304.994 18.3145 305.619 18.5963 306.376 18.5963ZM318.884 21.3012C317.798 21.3012 316.82 21.0548 315.948 20.5616C315.089 20.0545 314.414 19.3571 313.922 18.4695C313.441 17.582 313.202 16.5748 313.202 15.4477C313.202 14.3206 313.441 13.3133 313.922 12.4258C314.414 11.5382 315.089 10.8479 315.948 10.3548C316.82 9.84766 317.798 9.59408 318.884 9.59408C319.957 9.59408 320.892 9.84766 321.687 10.3548C322.495 10.8479 323.082 11.5594 323.449 12.4892L321.157 13.8628C320.627 12.8202 319.862 12.299 318.865 12.299C318.094 12.299 317.457 12.5807 316.952 13.1443C316.446 13.7078 316.195 14.4756 316.195 15.4477C316.195 16.4197 316.446 17.1876 316.952 17.7511C317.457 18.3145 318.094 18.5963 318.865 18.5963C319.875 18.5963 320.639 18.0751 321.157 17.0326L323.449 18.4273C323.082 19.3289 322.495 20.0333 321.687 20.5405C320.892 21.0477 319.957 21.3012 318.884 21.3012ZM333.768 12.468H330.321V21.1322H327.385V12.468H323.937V9.76313H333.768V12.468ZM343.129 15.1941C344.328 15.6449 344.928 16.5465 344.928 17.899C344.928 18.9274 344.581 19.7234 343.887 20.2869C343.191 20.8504 342.156 21.1322 340.78 21.1322H335.344V9.76313H340.553C341.827 9.76313 342.826 10.0238 343.546 10.545C344.265 11.0522 344.624 11.7707 344.624 12.7005C344.624 13.264 344.493 13.7641 344.227 14.2009C343.974 14.6235 343.608 14.9546 343.129 15.1941ZM338.053 14.4333H340.288C341.323 14.4333 341.841 14.0248 341.841 13.2077C341.841 12.4046 341.323 12.0031 340.288 12.0031H338.053V14.4333ZM340.534 18.8922C341.619 18.8922 342.163 18.4766 342.163 17.6454C342.163 17.2087 342.036 16.8917 341.784 16.6945C341.531 16.4831 341.133 16.3775 340.591 16.3775H338.053V18.8922H340.534ZM357.032 15.4899C357.032 15.5322 357.013 15.828 356.975 16.3775H349.266C349.405 17.0819 349.734 17.6383 350.251 18.0469C350.769 18.4555 351.413 18.6597 352.183 18.6597C352.713 18.6597 353.181 18.5752 353.584 18.4062C354.001 18.2231 354.387 17.9412 354.74 17.5609L356.312 19.4628C355.353 20.6884 353.951 21.3012 352.107 21.3012C350.958 21.3012 349.942 21.0548 349.057 20.5616C348.174 20.0545 347.492 19.3571 347.012 18.4695C346.533 17.582 346.292 16.5748 346.292 15.4477C346.292 14.3347 346.526 13.3345 346.993 12.4469C347.473 11.5453 348.124 10.8479 348.944 10.3548C349.777 9.84766 350.705 9.59408 351.728 9.59408C352.727 9.59408 353.629 9.83358 354.437 10.3126C355.246 10.7916 355.876 11.4819 356.331 12.3835C356.799 13.2711 357.032 14.3065 357.032 15.4899ZM351.747 12.0877C351.079 12.0877 350.516 12.299 350.061 12.7216C349.607 13.1443 349.329 13.7219 349.228 14.4545H354.247C354.147 13.736 353.869 13.1654 353.414 12.7428C352.959 12.306 352.405 12.0877 351.747 12.0877ZM359.298 9.76313H362.234V14.2009H366.666V9.76313H369.621V21.1322H366.666V16.8846H362.234V21.1322H359.298V9.76313ZM372.448 9.76313H375.384V14.2009H379.817V9.76313H382.771V21.1322H379.817V16.8846H375.384V21.1322H372.448V9.76313ZM390.961 13.3979C392.287 13.4119 393.291 13.743 393.972 14.3911C394.654 15.0391 394.995 15.9689 394.995 17.1805C394.995 18.4484 394.61 19.4276 393.84 20.1178C393.07 20.8081 391.977 21.1533 390.563 21.1533L385.6 21.1322V9.76313H388.536V13.3979H390.961ZM396.094 9.76313H399.03V21.1322H396.094V9.76313ZM390.298 18.8077C390.866 18.8217 391.302 18.688 391.605 18.4062C391.908 18.1243 392.059 17.7017 392.059 17.1382C392.059 16.5888 391.908 16.1873 391.605 15.9337C391.314 15.6801 390.878 15.5462 390.298 15.5322L388.536 15.5111V18.8077H390.298ZM401.878 9.76313H404.814V16.5254L409.776 9.76313H412.485V21.1322H409.549V14.3699L404.605 21.1322H401.878V9.76313ZM406.992 8.53747C404.77 8.53747 403.653 7.44565 403.639 5.262H405.571C405.585 5.75509 405.704 6.1425 405.931 6.42426C406.172 6.69193 406.518 6.82577 406.973 6.82577C407.427 6.82577 407.775 6.69193 408.015 6.42426C408.268 6.1425 408.393 5.75509 408.393 5.262H410.363C410.351 7.44565 409.227 8.53747 406.992 8.53747ZM110.1 39.6379H106.652V48.302H103.716V39.6379H100.269V36.9329H110.1V39.6379ZM121.155 42.6597C121.155 42.702 121.137 42.9979 121.099 43.5473H113.39C113.529 44.2517 113.857 44.8081 114.375 45.2167C114.892 45.6253 115.536 45.8295 116.307 45.8295C116.837 45.8295 117.304 45.745 117.708 45.576C118.125 45.3929 118.51 45.1111 118.864 44.7307L120.436 46.6326C119.476 47.8582 118.074 48.4711 116.231 48.4711C115.082 48.4711 114.065 48.2246 113.181 47.7314C112.297 47.2243 111.615 46.5269 111.136 45.6394C110.656 44.7518 110.416 43.7446 110.416 42.6175C110.416 41.5046 110.649 40.5043 111.117 39.6167C111.597 38.7151 112.247 38.0178 113.068 37.5246C113.901 37.0175 114.829 36.7639 115.852 36.7639C116.85 36.7639 117.752 37.0034 118.561 37.4824C119.369 37.9613 120 38.6517 120.455 39.5533C120.922 40.4409 121.155 41.4763 121.155 42.6597ZM115.871 39.2575C115.202 39.2575 114.64 39.4688 114.185 39.8914C113.731 40.3141 113.453 40.8917 113.352 41.6243H118.371C118.27 40.9058 117.992 40.3352 117.538 39.9126C117.083 39.4759 116.528 39.2575 115.871 39.2575ZM129.545 48.302L127.31 44.8152L124.999 48.302H121.779L125.7 42.5752L121.912 36.9329H125.227L127.386 40.2507L129.602 36.9329H132.746L128.958 42.4907L132.898 48.302H129.545ZM134.352 36.9329H137.288V41.3707H141.721V36.9329H144.675V48.302H141.721V44.0545H137.288V48.302H134.352V36.9329ZM147.504 36.9329H150.44V43.6952L155.403 36.9329H158.111V48.302H155.176V41.5397L150.232 48.302H147.504V36.9329ZM170.119 36.9329V48.302H167.164V44.0756C166.305 44.5545 165.358 44.7941 164.323 44.7941C162.947 44.7941 161.905 44.4489 161.198 43.7586C160.503 43.0541 160.156 41.9695 160.156 40.5043V36.9329H163.111V40.2929C163.111 40.9832 163.269 41.4834 163.584 41.7933C163.913 42.1032 164.38 42.2582 164.986 42.2582C165.756 42.2582 166.482 42.0751 167.164 41.7088V36.9329H170.119ZM182.862 42.6597C182.862 42.702 182.843 42.9979 182.805 43.5473H175.096C175.236 44.2517 175.563 44.8081 176.081 45.2167C176.599 45.6253 177.243 45.8295 178.013 45.8295C178.544 45.8295 179.01 45.745 179.415 45.576C179.832 45.3929 180.217 45.1111 180.57 44.7307L182.142 46.6326C181.183 47.8582 179.782 48.4711 177.937 48.4711C176.789 48.4711 175.771 48.2246 174.888 47.7314C174.004 47.2243 173.323 46.5269 172.842 45.6394C172.362 44.7518 172.123 43.7446 172.123 42.6175C172.123 41.5046 172.357 40.5043 172.823 39.6167C173.304 38.7151 173.953 38.0178 174.774 37.5246C175.608 37.0175 176.536 36.7639 177.559 36.7639C178.556 36.7639 179.46 37.0034 180.267 37.4824C181.075 37.9613 181.707 38.6517 182.161 39.5533C182.628 40.4409 182.862 41.4763 182.862 42.6597ZM177.578 39.2575C176.908 39.2575 176.346 39.4688 175.892 39.8914C175.437 40.3141 175.16 40.8917 175.058 41.6243H180.078C179.976 40.9058 179.699 40.3352 179.244 39.9126C178.79 39.4759 178.234 39.2575 177.578 39.2575ZM189.976 48.4711C188.891 48.4711 187.911 48.2246 187.04 47.7314C186.182 47.2243 185.506 46.5269 185.013 45.6394C184.534 44.7518 184.294 43.7446 184.294 42.6175C184.294 41.4904 184.534 40.4831 185.013 39.5956C185.506 38.708 186.182 38.0178 187.04 37.5246C187.911 37.0175 188.891 36.7639 189.976 36.7639C191.05 36.7639 191.984 37.0175 192.779 37.5246C193.588 38.0178 194.175 38.7292 194.541 39.659L192.249 41.0326C191.719 39.99 190.955 39.4688 189.957 39.4688C189.187 39.4688 188.55 39.7506 188.044 40.3141C187.539 40.8775 187.286 41.6454 187.286 42.6175C187.286 43.5895 187.539 44.3574 188.044 44.9209C188.55 45.4843 189.187 45.7662 189.957 45.7662C190.968 45.7662 191.732 45.2449 192.249 44.2024L194.541 45.5971C194.175 46.4987 193.588 47.2031 192.779 47.7103C191.984 48.2175 191.05 48.4711 189.976 48.4711ZM200.825 43.9911H199.291V48.302H196.336V36.9329H199.291V41.3495H200.882L203.647 36.9329H206.792L203.231 42.385L207.038 48.302H203.553L200.825 43.9911ZM208.49 36.9329H211.425V43.6952L216.388 36.9329H219.097V48.302H216.161V41.5397L211.217 48.302H208.49V36.9329ZM221.936 36.9329H224.872V43.6952L229.835 36.9329H232.544V48.302H229.608V41.5397L224.664 48.302H221.936V36.9329ZM227.051 35.7073C224.829 35.7073 223.712 34.6155 223.698 32.4318H225.63C225.644 32.9249 225.763 33.3123 225.99 33.5941C226.231 33.8617 226.577 33.9956 227.032 33.9956C227.486 33.9956 227.834 33.8617 228.073 33.5941C228.326 33.3123 228.452 32.9249 228.452 32.4318H230.422C230.41 34.6155 229.286 35.7073 227.051 35.7073ZM250.958 36.9329L246.356 48.9994C245.888 50.3096 245.307 51.2323 244.613 51.7677C243.931 52.3031 243.103 52.5707 242.132 52.5707C241.601 52.5707 241.077 52.4791 240.56 52.296C240.042 52.1129 239.618 51.8593 239.291 51.5352L240.37 49.1895C240.598 49.4149 240.856 49.5911 241.147 49.7178C241.45 49.8446 241.746 49.908 242.037 49.908C242.44 49.908 242.769 49.7953 243.022 49.5699C243.274 49.3586 243.501 48.9994 243.704 48.4922L243.742 48.3865L239.329 36.9329H242.378L245.238 44.6461L248.117 36.9329H250.958ZM252.383 36.9329H255.319V41.3707H259.751V36.9329H262.706V48.302H259.751V44.0545H255.319V48.302H252.383V36.9329ZM265.535 36.9329H268.471V43.6952L273.433 36.9329H276.142V48.302H273.206V41.5397L268.263 48.302H265.535V36.9329ZM286.767 42.3639C287.967 42.8148 288.566 43.7163 288.566 45.0688C288.566 46.0972 288.22 46.8932 287.524 47.4567C286.83 48.0202 285.795 48.302 284.418 48.302H278.982V36.9329H284.191C285.467 36.9329 286.464 37.1936 287.183 37.7148C287.903 38.222 288.263 38.9405 288.263 39.8703C288.263 40.4338 288.13 40.934 287.865 41.3707C287.614 41.7933 287.247 42.1243 286.767 42.3639ZM281.69 41.6031H283.926C284.962 41.6031 285.479 41.1945 285.479 40.3775C285.479 39.5745 284.962 39.1729 283.926 39.1729H281.69V41.6031ZM284.172 46.062C285.258 46.062 285.801 45.6465 285.801 44.8152C285.801 44.3785 285.675 44.0615 285.422 43.8643C285.17 43.6529 284.772 43.5473 284.229 43.5473H281.69V46.062H284.172ZM300.671 42.6597C300.671 42.702 300.652 42.9979 300.614 43.5473H292.905C293.044 44.2517 293.373 44.8081 293.89 45.2167C294.408 45.6253 295.052 45.8295 295.822 45.8295C296.352 45.8295 296.82 45.745 297.224 45.576C297.64 45.3929 298.026 45.1111 298.379 44.7307L299.951 46.6326C298.992 47.8582 297.59 48.4711 295.746 48.4711C294.598 48.4711 293.581 48.2246 292.697 47.7314C291.813 47.2243 291.131 46.5269 290.651 45.6394C290.172 44.7518 289.931 43.7446 289.931 42.6175C289.931 41.5046 290.165 40.5043 290.632 39.6167C291.112 38.7151 291.763 38.0178 292.583 37.5246C293.416 37.0175 294.345 36.7639 295.367 36.7639C296.366 36.7639 297.268 37.0034 298.076 37.4824C298.885 37.9613 299.515 38.6517 299.97 39.5533C300.438 40.4409 300.671 41.4763 300.671 42.6597ZM295.386 39.2575C294.718 39.2575 294.155 39.4688 293.701 39.8914C293.246 40.3141 292.969 40.8917 292.867 41.6243H297.887C297.786 40.9058 297.508 40.3352 297.053 39.9126C296.599 39.4759 296.044 39.2575 295.386 39.2575ZM308.94 36.7639C309.887 36.7639 310.746 37.0104 311.516 37.5035C312.299 37.9825 312.912 38.6658 313.353 39.5533C313.796 40.4268 314.016 41.4481 314.016 42.6175C314.016 43.7868 313.796 44.8152 313.353 45.7028C312.912 46.5763 312.299 47.2594 311.516 47.7526C310.746 48.2315 309.887 48.4711 308.94 48.4711C307.64 48.4711 306.617 48.0132 305.872 47.0975V52.4016H302.917V36.9329H305.739V38.2431C306.472 37.257 307.538 36.7639 308.94 36.7639ZM308.429 45.7662C309.186 45.7662 309.806 45.4843 310.285 44.9209C310.777 44.3432 311.024 43.5755 311.024 42.6175C311.024 41.6594 310.777 40.8987 310.285 40.3352C309.806 39.7575 309.186 39.4688 308.429 39.4688C307.671 39.4688 307.046 39.7575 306.553 40.3352C306.075 40.8987 305.834 41.6594 305.834 42.6175C305.834 43.5755 306.075 44.3432 306.553 44.9209C307.046 45.4843 307.671 45.7662 308.429 45.7662ZM320.937 48.4711C319.85 48.4711 318.872 48.2246 318.001 47.7314C317.142 47.2243 316.466 46.5269 315.974 45.6394C315.494 44.7518 315.254 43.7446 315.254 42.6175C315.254 41.4904 315.494 40.4831 315.974 39.5956C316.466 38.708 317.142 38.0178 318.001 37.5246C318.872 37.0175 319.85 36.7639 320.937 36.7639C322.009 36.7639 322.944 37.0175 323.74 37.5246C324.548 38.0178 325.135 38.7292 325.501 39.659L323.21 41.0326C322.679 39.99 321.915 39.4688 320.918 39.4688C320.148 39.4688 319.509 39.7506 319.005 40.3141C318.5 40.8775 318.247 41.6454 318.247 42.6175C318.247 43.5895 318.5 44.3574 319.005 44.9209C319.509 45.4843 320.148 45.7662 320.918 45.7662C321.928 45.7662 322.691 45.2449 323.21 44.2024L325.501 45.5971C325.135 46.4987 324.548 47.2031 323.74 47.7103C322.944 48.2175 322.009 48.4711 320.937 48.4711ZM327.297 36.9329H330.233V43.6952L335.195 36.9329H337.904V48.302H334.968V41.5397L330.024 48.302H327.297V36.9329ZM349.306 39.6379H345.859V48.302H342.923V39.6379H339.476V36.9329H349.306V39.6379ZM360.361 42.6597C360.361 42.702 360.342 42.9979 360.305 43.5473H352.595C352.735 44.2517 353.064 44.8081 353.58 45.2167C354.099 45.6253 354.743 45.8295 355.512 45.8295C356.043 45.8295 356.511 45.745 356.914 45.576C357.331 45.3929 357.716 45.1111 358.069 44.7307L359.642 46.6326C358.682 47.8582 357.281 48.4711 355.437 48.4711C354.288 48.4711 353.272 48.2246 352.387 47.7314C351.504 47.2243 350.822 46.5269 350.341 45.6394C349.862 44.7518 349.622 43.7446 349.622 42.6175C349.622 41.5046 349.856 40.5043 350.322 39.6167C350.803 38.7151 351.454 38.0178 352.273 37.5246C353.107 37.0175 354.035 36.7639 355.058 36.7639C356.056 36.7639 356.959 37.0034 357.766 37.4824C358.575 37.9613 359.206 38.6517 359.66 39.5533C360.129 40.4409 360.361 41.4763 360.361 42.6597ZM355.077 39.2575C354.408 39.2575 353.846 39.4688 353.391 39.8914C352.936 40.3141 352.659 40.8917 352.558 41.6243H357.577C357.477 40.9058 357.198 40.3352 356.744 39.9126C356.289 39.4759 355.734 39.2575 355.077 39.2575ZM370.837 39.6379H367.39V48.302H364.454V39.6379H361.007V36.9329H370.837V39.6379Z" fill="#2749A1"/>
<path d="M101.714 66.415H108.641V67.366H102.702V70.8226H105.8C106.918 70.8226 107.766 71.0792 108.344 71.5924C108.93 72.1056 109.223 72.8502 109.223 73.8264C109.223 74.8427 108.907 75.6226 108.276 76.166C107.654 76.7094 106.756 76.9811 105.584 76.9811H101.714V66.415ZM105.57 76.0905C106.445 76.0905 107.103 75.9044 107.545 75.532C107.996 75.1596 108.222 74.6063 108.222 73.8716C108.222 73.1471 108.001 72.6087 107.559 72.2565C107.126 71.8943 106.463 71.7132 105.57 71.7132H102.702V76.0905H105.57ZM117.163 69.0415L113.605 77.932C113.317 78.6766 112.983 79.2049 112.604 79.5169C112.225 79.8289 111.77 79.9849 111.238 79.9849C110.895 79.9849 110.575 79.9245 110.277 79.8037C109.979 79.683 109.722 79.5018 109.506 79.2603L109.952 78.4603C110.313 78.8629 110.746 79.0641 111.251 79.0641C111.576 79.0641 111.851 78.9634 112.076 78.7622C112.311 78.561 112.527 78.2188 112.726 77.7358L113.037 76.966L109.858 69.0415H110.859L113.538 75.7886L116.216 69.0415H117.163ZM125.284 76.0452V78.8981H124.377V76.9811H118.005V78.8981H117.098V76.0452H117.504C117.982 76.015 118.307 75.6226 118.478 74.8679C118.65 74.1132 118.767 73.0565 118.83 71.6981L118.925 69.0415H124.174V76.0452H125.284ZM119.709 71.7584C119.664 72.8855 119.579 73.8162 119.452 74.5509C119.326 75.2754 119.101 75.7735 118.776 76.0452H123.214V69.9924H119.791L119.709 71.7584ZM133.203 69.0415L129.645 77.932C129.356 78.6766 129.023 79.2049 128.644 79.5169C128.265 79.8289 127.81 79.9849 127.277 79.9849C126.935 79.9849 126.614 79.9245 126.317 79.8037C126.019 79.683 125.762 79.5018 125.546 79.2603L125.992 78.4603C126.353 78.8629 126.786 79.0641 127.291 79.0641C127.616 79.0641 127.891 78.9634 128.116 78.7622C128.351 78.561 128.567 78.2188 128.766 77.7358L129.077 76.966L125.897 69.0415H126.899L129.577 75.7886L132.256 69.0415H133.203ZM144.523 69.0415V76.9811H134.7V69.0415H135.661V76.0452H139.151V69.0415H140.112V76.0452H143.562V69.0415H144.523ZM145.618 76.0452V78.7169H144.712V76.9811H143.508V76.0452H145.618ZM153.488 73.3433H147.536C147.59 74.1685 147.874 74.8377 148.388 75.3509C148.902 75.854 149.551 76.1056 150.336 76.1056C150.779 76.1056 151.184 76.02 151.554 75.849C151.923 75.6679 152.244 75.4063 152.514 75.0641L153.056 75.7584C152.74 76.1811 152.343 76.503 151.865 76.7245C151.395 76.9459 150.877 77.0565 150.309 77.0565C149.578 77.0565 148.929 76.8855 148.361 76.5433C147.802 76.1912 147.364 75.7082 147.048 75.0943C146.733 74.4804 146.575 73.7861 146.575 73.0113C146.575 72.2365 146.724 71.5421 147.021 70.9282C147.329 70.3144 147.743 69.8365 148.266 69.4943C148.798 69.1521 149.393 68.9811 150.052 68.9811C150.711 68.9811 151.301 69.1521 151.824 69.4943C152.348 69.8365 152.758 70.3144 153.056 70.9282C153.353 71.532 153.502 72.2264 153.502 73.0113L153.488 73.3433ZM150.052 69.9018C149.366 69.9018 148.79 70.1483 148.32 70.6415C147.86 71.1245 147.599 71.7584 147.536 72.5433H152.582C152.518 71.7584 152.253 71.1245 151.784 70.6415C151.324 70.1483 150.746 69.9018 150.052 69.9018ZM161.852 73.3433H155.899C155.954 74.1685 156.238 74.8377 156.752 75.3509C157.266 75.854 157.915 76.1056 158.7 76.1056C159.141 76.1056 159.547 76.02 159.918 75.849C160.287 75.6679 160.608 75.4063 160.878 75.0641L161.419 75.7584C161.103 76.1811 160.706 76.503 160.229 76.7245C159.759 76.9459 159.241 77.0565 158.673 77.0565C157.942 77.0565 157.293 76.8855 156.725 76.5433C156.165 76.1912 155.728 75.7082 155.412 75.0943C155.096 74.4804 154.939 73.7861 154.939 73.0113C154.939 72.2365 155.088 71.5421 155.385 70.9282C155.691 70.3144 156.106 69.8365 156.63 69.4943C157.162 69.1521 157.757 68.9811 158.416 68.9811C159.073 68.9811 159.665 69.1521 160.188 69.4943C160.71 69.8365 161.122 70.3144 161.419 70.9282C161.717 71.532 161.866 72.2264 161.866 73.0113L161.852 73.3433ZM158.416 69.9018C157.73 69.9018 157.152 70.1483 156.684 70.6415C156.224 71.1245 155.962 71.7584 155.899 72.5433H160.946C160.882 71.7584 160.616 71.1245 160.148 70.6415C159.688 70.1483 159.11 69.9018 158.416 69.9018ZM171.074 69.0415H172.035V72.5584H176.513V69.0415H177.473V76.9811H176.513V73.4792H172.035V76.9811H171.074V69.0415ZM182.652 68.9811C183.581 68.9811 184.294 69.2427 184.79 69.766C185.285 70.2792 185.534 71.044 185.534 72.0603V76.9811H184.614V75.7433C184.398 76.1559 184.077 76.478 183.654 76.7094C183.238 76.9408 182.742 77.0565 182.165 77.0565C181.371 77.0565 180.739 76.8452 180.271 76.4226C179.802 75.9999 179.568 75.4415 179.568 74.7471C179.568 74.0729 179.784 73.5295 180.217 73.1169C180.658 72.7044 181.358 72.4981 182.314 72.4981H184.574V72.015C184.574 71.3308 184.402 70.8125 184.06 70.4603C183.716 70.0981 183.215 69.9169 182.558 69.9169C182.106 69.9169 181.673 70.0025 181.259 70.1735C180.844 70.3346 180.488 70.561 180.19 70.8528L179.757 70.0528C180.117 69.7106 180.55 69.449 181.056 69.2679C181.561 69.0766 182.092 68.9811 182.652 68.9811ZM182.314 76.2113C182.855 76.2113 183.319 76.0754 183.708 75.8037C184.095 75.5219 184.384 75.1195 184.574 74.5962V73.2981H182.341C181.124 73.2981 180.515 73.771 180.515 74.7169C180.515 75.1799 180.672 75.5471 180.988 75.8188C181.304 76.0804 181.746 76.2113 182.314 76.2113ZM193.462 69.0415V76.9811H192.502V73.6754C191.681 74.078 190.873 74.2792 190.08 74.2792C189.222 74.2792 188.555 74.0629 188.078 73.6301C187.599 73.1874 187.361 72.5282 187.361 71.6528V69.0415H188.321V71.5924C188.321 72.1861 188.492 72.6389 188.835 72.9509C189.178 73.2528 189.651 73.4037 190.256 73.4037C190.923 73.4037 191.671 73.2075 192.502 72.815V69.0415H193.462ZM196.19 69.0415H197.151V75.3509L201.899 69.0415H202.752V76.9811H201.791V70.6716L197.056 76.9811H196.19V69.0415ZM205.505 69.0415H206.466V72.5584H210.944V69.0415H211.904V76.9811H210.944V73.4792H206.466V76.9811H205.505V69.0415ZM217.083 68.9811C218.012 68.9811 218.725 69.2427 219.221 69.766C219.716 70.2792 219.965 71.044 219.965 72.0603V76.9811H219.045V75.7433C218.829 76.1559 218.508 76.478 218.085 76.7094C217.669 76.9408 217.173 77.0565 216.596 77.0565C215.802 77.0565 215.17 76.8452 214.702 76.4226C214.233 75.9999 213.999 75.4415 213.999 74.7471C213.999 74.0729 214.215 73.5295 214.648 73.1169C215.089 72.7044 215.789 72.4981 216.745 72.4981H219.005V72.015C219.005 71.3308 218.833 70.8125 218.491 70.4603C218.147 70.0981 217.646 69.9169 216.989 69.9169C216.537 69.9169 216.104 70.0025 215.69 70.1735C215.275 70.3346 214.919 70.561 214.621 70.8528L214.188 70.0528C214.548 69.7106 214.981 69.449 215.487 69.2679C215.992 69.0766 216.523 68.9811 217.083 68.9811ZM216.745 76.2113C217.286 76.2113 217.75 76.0754 218.139 75.8037C218.526 75.5219 218.815 75.1195 219.005 74.5962V73.2981H216.772C215.555 73.2981 214.946 73.771 214.946 74.7169C214.946 75.1799 215.103 75.5471 215.419 75.8188C215.735 76.0804 216.177 76.2113 216.745 76.2113ZM228.746 73.3433H222.793C222.847 74.1685 223.131 74.8377 223.645 75.3509C224.159 75.854 224.809 76.1056 225.593 76.1056C226.036 76.1056 226.442 76.02 226.811 75.849C227.18 75.6679 227.501 75.4063 227.772 75.0641L228.313 75.7584C227.998 76.1811 227.6 76.503 227.122 76.7245C226.653 76.9459 226.135 77.0565 225.566 77.0565C224.836 77.0565 224.186 76.8855 223.618 76.5433C223.059 76.1912 222.621 75.7082 222.306 75.0943C221.991 74.4804 221.832 73.7861 221.832 73.0113C221.832 72.2365 221.981 71.5421 222.279 70.9282C222.586 70.3144 223 69.8365 223.523 69.4943C224.055 69.1521 224.65 68.9811 225.309 68.9811C225.968 68.9811 226.558 69.1521 227.082 69.4943C227.605 69.8365 228.015 70.3144 228.313 70.9282C228.611 71.532 228.759 72.2264 228.759 73.0113L228.746 73.3433ZM225.309 69.9018C224.623 69.9018 224.047 70.1483 223.578 70.6415C223.118 71.1245 222.856 71.7584 222.793 72.5433H227.839C227.776 71.7584 227.511 71.1245 227.041 70.6415C226.581 70.1483 226.003 69.9018 225.309 69.9018ZM235.574 69.9924H232.882V76.9811H231.921V69.9924H229.229V69.0415H235.574V69.9924ZM239.61 77.0565C238.906 77.0565 238.275 76.8855 237.716 76.5433C237.165 76.2012 236.732 75.7233 236.417 75.1094C236.1 74.4855 235.943 73.7861 235.943 73.0113C235.943 72.2365 236.1 71.5421 236.417 70.9282C236.732 70.3144 237.165 69.8365 237.716 69.4943C238.275 69.1521 238.906 68.9811 239.61 68.9811C240.223 68.9811 240.768 69.1169 241.247 69.3886C241.734 69.6502 242.117 70.0377 242.397 70.5509L241.68 71.0943C241.445 70.7018 241.147 70.4101 240.787 70.2188C240.426 70.0176 240.033 69.9169 239.61 69.9169C239.096 69.9169 238.63 70.0478 238.216 70.3094C237.811 70.561 237.49 70.9233 237.256 71.3962C237.03 71.8691 236.918 72.4075 236.918 73.0113C236.918 73.6252 237.03 74.1685 237.256 74.6415C237.49 75.1044 237.811 75.4667 238.216 75.7282C238.63 75.9799 239.096 76.1056 239.61 76.1056C240.033 76.1056 240.426 76.0101 240.787 75.8188C241.147 75.6276 241.445 75.3358 241.68 74.9433L242.397 75.4867C242.117 75.9999 241.734 76.3924 241.247 76.6641C240.76 76.9257 240.213 77.0565 239.61 77.0565ZM249.485 69.0415V76.9811H248.606V74.3547H246.373H246.103L244.452 76.9811H243.41L245.183 74.2037C244.632 74.0327 244.209 73.7408 243.911 73.3282C243.613 72.9157 243.464 72.3924 243.464 71.7584C243.464 70.8729 243.735 70.1987 244.276 69.7358C244.817 69.2729 245.556 69.0415 246.495 69.0415H249.485ZM244.439 71.7886C244.439 72.966 245.11 73.5547 246.454 73.5547H248.606V69.9924H246.522C245.133 69.9924 244.439 70.5912 244.439 71.7886ZM258.741 77.0565C258.037 77.0565 257.407 76.8855 256.846 76.5433C256.297 76.2012 255.864 75.7233 255.548 75.1094C255.232 74.4855 255.074 73.7861 255.074 73.0113C255.074 72.2365 255.232 71.5421 255.548 70.9282C255.864 70.3144 256.297 69.8365 256.846 69.4943C257.407 69.1521 258.037 68.9811 258.741 68.9811C259.355 68.9811 259.9 69.1169 260.378 69.3886C260.865 69.6502 261.249 70.0377 261.528 70.5509L260.811 71.0943C260.576 70.7018 260.279 70.4101 259.918 70.2188C259.558 70.0176 259.165 69.9169 258.741 69.9169C258.226 69.9169 257.762 70.0478 257.347 70.3094C256.941 70.561 256.622 70.9233 256.386 71.3962C256.162 71.8691 256.048 72.4075 256.048 73.0113C256.048 73.6252 256.162 74.1685 256.386 74.6415C256.622 75.1044 256.941 75.4667 257.347 75.7282C257.762 75.9799 258.226 76.1056 258.741 76.1056C259.165 76.1056 259.558 76.0101 259.918 75.8188C260.279 75.6276 260.576 75.3358 260.811 74.9433L261.528 75.4867C261.249 75.9999 260.865 76.3924 260.378 76.6641C259.891 76.9257 259.345 77.0565 258.741 77.0565ZM269.492 73.3433H263.539C263.594 74.1685 263.878 74.8377 264.392 75.3509C264.906 75.854 265.555 76.1056 266.34 76.1056C266.782 76.1056 267.188 76.02 267.558 75.849C267.927 75.6679 268.248 75.4063 268.518 75.0641L269.059 75.7584C268.744 76.1811 268.346 76.503 267.869 76.7245C267.399 76.9459 266.881 77.0565 266.313 77.0565C265.582 77.0565 264.933 76.8855 264.365 76.5433C263.806 76.1912 263.368 75.7082 263.052 75.0943C262.737 74.4804 262.579 73.7861 262.579 73.0113C262.579 72.2365 262.728 71.5421 263.025 70.9282C263.332 70.3144 263.746 69.8365 264.27 69.4943C264.802 69.1521 265.397 68.9811 266.056 68.9811C266.715 68.9811 267.305 69.1521 267.828 69.4943C268.352 69.8365 268.762 70.3144 269.059 70.9282C269.357 71.532 269.506 72.2264 269.506 73.0113L269.492 73.3433ZM266.056 69.9018C265.37 69.9018 264.794 70.1483 264.324 70.6415C263.864 71.1245 263.603 71.7584 263.539 72.5433H268.586C268.522 71.7584 268.257 71.1245 267.788 70.6415C267.328 70.1483 266.75 69.9018 266.056 69.9018ZM276.666 69.9924H272.593V76.9811H271.633V69.0415H276.666V69.9924ZM280.66 77.0565C279.974 77.0565 279.355 76.8855 278.806 76.5433C278.255 76.1912 277.822 75.7082 277.507 75.0943C277.191 74.4804 277.034 73.7861 277.034 73.0113C277.034 72.2365 277.191 71.5421 277.507 70.9282C277.822 70.3144 278.255 69.8365 278.806 69.4943C279.355 69.1521 279.974 68.9811 280.66 68.9811C281.344 68.9811 281.962 69.1521 282.513 69.4943C283.062 69.8365 283.491 70.3144 283.798 70.9282C284.114 71.5421 284.272 72.2365 284.272 73.0113C284.272 73.7861 284.114 74.4804 283.798 75.0943C283.491 75.7082 283.062 76.1912 282.513 76.5433C281.962 76.8855 281.344 77.0565 280.66 77.0565ZM280.66 76.1056C281.164 76.1056 281.615 75.9799 282.012 75.7282C282.418 75.4667 282.734 75.0993 282.96 74.6264C283.184 74.1535 283.298 73.615 283.298 73.0113C283.298 72.4075 283.184 71.8691 282.96 71.3962C282.734 70.9233 282.418 70.561 282.012 70.3094C281.615 70.0478 281.164 69.9169 280.66 69.9169C280.154 69.9169 279.699 70.0478 279.293 70.3094C278.895 70.561 278.58 70.9233 278.346 71.3962C278.12 71.8691 278.008 72.4075 278.008 73.0113C278.008 73.615 278.12 74.1535 278.346 74.6264C278.58 75.0993 278.895 75.4667 279.293 75.7282C279.699 75.9799 280.154 76.1056 280.66 76.1056ZM293.226 76.0452V78.8981H292.319V76.9811H285.947V78.8981H285.04V76.0452H285.446C285.924 76.015 286.249 75.6226 286.42 74.8679C286.591 74.1132 286.709 73.0565 286.772 71.6981L286.867 69.0415H292.116V76.0452H293.226ZM287.652 71.7584C287.606 72.8855 287.52 73.8162 287.394 74.5509C287.267 75.2754 287.043 75.7735 286.718 76.0452H291.156V69.9924H287.733L287.652 71.7584ZM295.097 69.0415H296.057V72.5584H300.536V69.0415H301.496V76.9811H300.536V73.4792H296.057V76.9811H295.097V69.0415ZM309.694 69.0415V76.9811H308.814V74.3547H306.582H306.311L304.661 76.9811H303.619L305.391 74.2037C304.841 74.0327 304.417 73.7408 304.12 73.3282C303.822 72.9157 303.673 72.3924 303.673 71.7584C303.673 70.8729 303.944 70.1987 304.485 69.7358C305.026 69.2729 305.765 69.0415 306.704 69.0415H309.694ZM304.647 71.7886C304.647 72.966 305.318 73.5547 306.663 73.5547H308.814V69.9924H306.731C305.341 69.9924 304.647 70.5912 304.647 71.7886ZM312.256 66.415H313.393L313.19 73.8113H312.446L312.256 66.415ZM312.824 77.0565C312.625 77.0565 312.455 76.9811 312.31 76.8301C312.175 76.6691 312.107 76.483 312.107 76.2716C312.107 76.0502 312.175 75.8691 312.31 75.7282C312.446 75.5773 312.617 75.5018 312.824 75.5018C313.023 75.5018 313.19 75.5773 313.325 75.7282C313.46 75.8691 313.528 76.0502 313.528 76.2716C313.528 76.483 313.46 76.6691 313.325 76.8301C313.19 76.9811 313.023 77.0565 312.824 77.0565Z" fill="#E46025"/>
<mask id="mask0_403_624" style="mask-type:luminance" maskUnits="userSpaceOnUse" x="0" y="1" width="68" height="51">
<path d="M67.6471 1.50952H0V51.2887H67.6471V1.50952Z" fill="white"/>
</mask>
<g mask="url(#mask0_403_624)">
<path fill-rule="evenodd" clip-rule="evenodd" d="M0 18.6785H11.3432V22.0039H7.53752V32.1654H3.80565V22.0039H0V18.6785Z" fill="#2749A1"/>
<path fill-rule="evenodd" clip-rule="evenodd" d="M30.1562 22.0039H24.3093V32.1654H20.5714V18.6785H30.1562V22.0039Z" fill="#2749A1"/>
<path fill-rule="evenodd" clip-rule="evenodd" d="M37.0175 18.6785H48.3667V22.0039H44.5612V32.1654H40.8231V22.0039H37.0175V18.6785Z" fill="#2749A1"/>
<path fill-rule="evenodd" clip-rule="evenodd" d="M56.4454 18.6716H60.5093L62.1877 24.2393L63.8414 18.6716H67.6348L63.6632 29.1006C63.4254 29.7509 63.1417 30.3791 62.8148 30.9794C62.5471 31.4218 62.1804 31.7788 61.7511 32.0147C61.1328 32.3113 60.4622 32.4473 59.7899 32.4125C59.0329 32.3854 58.2777 32.3145 57.5274 32.1998V29.4571C58.1423 29.5257 58.6157 29.5601 58.9045 29.5601C59.7653 29.5601 60.2879 29.1966 60.4786 28.4836L56.4454 18.6716Z" fill="#2749A1"/>
<path fill-rule="evenodd" clip-rule="evenodd" d="M12.413 26.3785C12.4118 26.084 12.489 25.7957 12.6348 25.5501C12.7807 25.3045 12.9886 25.1127 13.2323 24.999C13.4759 24.8854 13.7444 24.8549 14.0036 24.9116C14.2628 24.9682 14.5011 25.1094 14.6883 25.3172C14.8754 25.5249 15.0032 25.7901 15.0551 26.0789C15.1071 26.3676 15.0811 26.6672 14.9803 26.9395C14.8795 27.2117 14.7085 27.4446 14.4889 27.6084C14.2695 27.7721 14.0112 27.8595 13.7471 27.8595C13.5722 27.8605 13.3988 27.8229 13.237 27.7488C13.0752 27.6748 12.9281 27.5658 12.8041 27.4283C12.6801 27.2906 12.5818 27.127 12.5146 26.9469C12.4475 26.7667 12.413 26.5737 12.413 26.3785Z" fill="#2749A1"/>
<path fill-rule="evenodd" clip-rule="evenodd" d="M32.351 26.3786C32.3498 26.1899 32.3989 26.0048 32.4921 25.8472C32.5852 25.6897 32.7183 25.5663 32.8743 25.4933C33.0303 25.4201 33.2024 25.4001 33.3685 25.4362C33.5347 25.4721 33.6875 25.5624 33.8077 25.6954C33.9278 25.8284 34.0098 25.9982 34.0432 26.1832C34.0768 26.3683 34.0601 26.5603 33.9957 26.7349C33.9312 26.9094 33.8216 27.0587 33.681 27.1638C33.5403 27.2688 33.3749 27.3248 33.2056 27.3248C32.98 27.3248 32.7636 27.2254 32.6034 27.0481C32.4434 26.8708 32.3526 26.6302 32.351 26.3786Z" fill="#2749A1"/>
<path fill-rule="evenodd" clip-rule="evenodd" d="M50.6292 26.3785C50.6279 26.084 50.7052 25.7957 50.851 25.5501C50.9969 25.3045 51.2048 25.1127 51.4485 24.999C51.6922 24.8854 51.9606 24.8549 52.2198 24.9116C52.479 24.9682 52.7173 25.1094 52.9045 25.3172C53.0917 25.5249 53.2194 25.7901 53.2713 26.0789C53.3234 26.3676 53.2973 26.6672 53.1965 26.9395C53.0957 27.2117 52.9247 27.4446 52.7051 27.6084C52.4857 27.7721 52.2275 27.8595 51.9633 27.8595C51.7885 27.8605 51.6151 27.8229 51.4532 27.7488C51.2914 27.6748 51.1444 27.5658 51.0203 27.4283C50.8964 27.2906 50.798 27.127 50.7309 26.9469C50.6638 26.7667 50.6292 26.5737 50.6292 26.3785Z" fill="#2749A1"/>
<path d="M14.9704 23.9101L14.491 23.4781C24.377 9.85405 40.3681 1.50952 49.6455 1.50952H49.8054C53.4942 1.55067 56.0456 2.88084 57.2507 5.33553C59.1442 9.1821 57.7118 15.4079 52.9901 23.8484L52.4675 23.4851C56.9986 15.4011 58.4618 9.23695 56.7159 5.65779C55.6399 3.43624 53.2483 2.23633 49.8054 2.19518H49.6271C40.5095 2.19518 24.7398 10.4437 14.9704 23.9101Z" fill="#2749A1"/>
<path d="M14.7614 24.0337C14.6873 24.0334 14.6156 24.0043 14.5585 23.9514C14.5278 23.9225 14.5026 23.887 14.4843 23.847C14.4662 23.807 14.4553 23.7634 14.4524 23.7187C14.4496 23.6738 14.4547 23.629 14.4677 23.5866C14.4807 23.544 14.5011 23.5049 14.5278 23.4714C23.879 11.3352 39.0463 3.90259 47.8503 3.90259H48.0224C51.8035 3.94374 54.355 5.10937 55.5906 7.37205C57.3737 10.629 56.5313 16.0046 53.0269 23.828C52.9903 23.9098 52.9259 23.9721 52.8481 24.0009C52.7703 24.0299 52.6853 24.0231 52.612 23.9822C52.5385 23.9413 52.4828 23.8696 52.4568 23.7828C52.431 23.696 52.4369 23.6012 52.4736 23.5194C55.8305 16.0458 56.7034 10.7387 55.0619 7.74917C53.9307 5.65104 51.6498 4.62254 48.0163 4.58825H47.8441C39.1815 4.58825 24.2294 11.9249 14.9644 23.9172C14.9119 23.9825 14.8396 24.024 14.7614 24.0337Z" fill="#2749A1"/>
<path d="M15.6099 51.2886H15.4255C11.7367 51.2406 9.18522 49.9173 7.9802 47.4626C6.09275 43.616 7.52524 37.3902 12.2408 28.9497L12.7634 29.313C8.23842 37.4039 6.76903 43.5612 8.52122 47.1404C9.61558 49.3687 12.0072 50.5687 15.4316 50.6098C24.5246 50.699 40.448 42.4436 50.285 28.8948L50.7584 29.3268C40.8784 42.9372 24.8812 51.2886 15.6099 51.2886Z" fill="#2749A1"/>
<path d="M17.4051 48.9026H17.2207C13.4335 48.8546 10.8882 47.689 9.65239 45.4263C7.86946 42.1694 8.70559 36.7937 12.2161 28.9703C12.253 28.8896 12.317 28.8284 12.3942 28.8001C12.4714 28.7718 12.5555 28.7788 12.6281 28.8195C12.6645 28.8392 12.697 28.8668 12.7236 28.9007C12.7503 28.9347 12.7705 28.9743 12.7832 29.0171C12.7958 29.06 12.8005 29.1053 12.7971 29.1503C12.7937 29.1952 12.7822 29.239 12.7633 29.2789C9.40647 36.7527 8.53346 42.0597 10.175 45.0491C11.3124 47.1062 13.6179 48.1552 17.2268 48.1963C25.834 48.306 40.9522 40.9284 50.2787 28.8538C50.3047 28.8195 50.3365 28.7915 50.3723 28.7711C50.4082 28.7507 50.4474 28.7386 50.4875 28.7355C50.5275 28.7323 50.5678 28.738 50.6058 28.7525C50.644 28.7669 50.679 28.7897 50.7091 28.8195C50.7701 28.8802 50.8074 28.9651 50.8132 29.0559C50.8189 29.1469 50.7927 29.2367 50.7399 29.3063C41.3763 41.4632 26.203 48.9026 17.4051 48.9026Z" fill="#2749A1"/>
</g>
</svg>
