<svg width="14" height="14" viewBox="0 0 14 14" fill="none" xmlns="http://www.w3.org/2000/svg">
<path d="M3.19756 1.16223C3.14591 1.09578 3.08071 1.04109 3.00629 1.00178C2.93188 0.96247 2.84995 0.939443 2.76595 0.93423C2.68196 0.929016 2.59781 0.941734 2.5191 0.971541C2.4404 1.00135 2.36894 1.04756 2.30946 1.10711L1.40474 2.01271C0.982131 2.4362 0.826386 3.03556 1.01101 3.56142C1.77725 5.73801 3.0237 7.71415 4.65789 9.34328C6.28703 10.9775 8.26315 12.2239 10.4397 12.9902C10.9656 13.1748 11.5649 13.0191 11.9884 12.5964L12.8931 11.6917C12.9527 11.6322 12.9989 11.5608 13.0287 11.4821C13.0585 11.4034 13.0712 11.3192 13.066 11.2352C13.0608 11.1512 13.0378 11.0693 12.9985 10.9949C12.9591 10.9205 12.9045 10.8553 12.838 10.8036L10.8194 9.23391C10.7485 9.17885 10.6659 9.14063 10.578 9.12214C10.4901 9.10365 10.3991 9.10537 10.312 9.12716L8.39577 9.60577C8.14 9.6697 7.87203 9.66631 7.61796 9.59593C7.36389 9.52555 7.13237 9.39058 6.94594 9.20416L4.79701 7.05434C4.61044 6.868 4.47531 6.63652 4.40477 6.38244C4.33424 6.12836 4.33071 5.86034 4.39452 5.6045L4.87401 3.68829C4.8958 3.60114 4.89752 3.51018 4.87903 3.42227C4.86054 3.33436 4.82232 3.25179 4.76726 3.18081L3.19756 1.16223ZM1.64886 0.447372C1.80198 0.294207 1.98592 0.175368 2.18849 0.0987468C2.39106 0.0221257 2.60761 -0.0105245 2.82376 0.00296446C3.03991 0.0164534 3.25072 0.0757727 3.44219 0.176983C3.63366 0.278194 3.8014 0.41898 3.93429 0.589994L5.50399 2.60769C5.79186 2.97781 5.89335 3.45992 5.77961 3.91491L5.301 5.83112C5.27625 5.93036 5.27759 6.03432 5.30488 6.1329C5.33217 6.23148 5.38448 6.32133 5.45674 6.39373L7.60655 8.54355C7.67903 8.61596 7.76903 8.66836 7.86777 8.69565C7.96652 8.72295 8.07065 8.7242 8.17003 8.6993L10.0853 8.22068C10.3099 8.16454 10.5442 8.16018 10.7707 8.20793C10.9972 8.25568 11.2098 8.35429 11.3926 8.4963L13.4102 10.066C14.1356 10.6304 14.2021 11.7022 13.5529 12.3506L12.6481 13.2553C12.0007 13.9028 11.0329 14.1872 10.1308 13.8695C7.82195 13.0571 5.7256 11.7353 3.99729 10.0021C2.26422 8.27407 0.942415 6.17801 0.129908 3.86941C-0.186832 2.96819 0.097534 1.99958 0.745014 1.3521L1.64974 0.447372H1.64886Z" fill="white"/>
</svg>
