<svg width="19" height="19" viewBox="0 0 19 19" fill="none" xmlns="http://www.w3.org/2000/svg">
<path d="M17.8389 19L10.8986 12.0597C10.3708 12.5171 9.75545 12.8734 9.05247 13.1285C8.34949 13.3836 7.60144 13.5111 6.80833 13.5111C4.90548 13.5111 3.29505 12.8514 1.97703 11.5319C0.65901 10.2125 0 8.62037 0 6.75556C0 4.89074 0.659722 3.29861 1.97917 1.97917C3.29861 0.659722 4.89514 0 6.76875 0C8.64236 0 10.2345 0.659722 11.5451 1.97917C12.8558 3.29861 13.5111 4.89206 13.5111 6.75951C13.5111 7.51336 13.388 8.24213 13.1417 8.94583C12.8954 9.64954 12.5259 10.3093 12.0333 10.925L19 17.8389L17.8389 19ZM6.78194 11.9278C8.21134 11.9278 9.42633 11.422 10.4269 10.4104C11.4275 9.39884 11.9278 8.18056 11.9278 6.75556C11.9278 5.33056 11.4275 4.11227 10.4269 3.10069C9.42633 2.08912 8.21134 1.58333 6.78194 1.58333C5.33789 1.58333 4.11044 2.08912 3.09959 3.10069C2.08875 4.11227 1.58333 5.33056 1.58333 6.75556C1.58333 8.18056 2.08875 9.39884 3.09959 10.4104C4.11044 11.422 5.33789 11.9278 6.78194 11.9278Z" fill="white"/>
</svg>
